<svg width="44" height="44" viewBox="0 0 44 44" fill="none" xmlns="http://www.w3.org/2000/svg">
<path fill-rule="evenodd" clip-rule="evenodd" d="M32.6666 15L11.3359 15L11.3359 13L32.6666 13V15Z" fill="white"/>
<path fill-rule="evenodd" clip-rule="evenodd" d="M32.6666 23.001L11.3359 23.001L11.3359 21.001L32.6666 21.001V23.001Z" fill="white"/>
<path fill-rule="evenodd" clip-rule="evenodd" d="M32.6666 31.0013L11.3359 31.0013L11.3359 29.0013L32.6666 29.0013V31.0013Z" fill="white"/>
<path d="M32.6666 15.75H33.4166V15V13V12.25L32.6666 12.25L11.3359 12.25H10.5859L10.5859 13L10.5859 15L10.5859 15.75H11.3359L32.6666 15.75ZM32.6666 23.751H33.4166V23.001V21.001V20.251H32.6666L11.3359 20.251H10.5859L10.5859 21.001L10.5859 23.001L10.5859 23.751H11.3359L32.6666 23.751ZM32.6666 31.7513H33.4166V31.0013V29.0013V28.2513H32.6666L11.3359 28.2513H10.5859L10.5859 29.0013L10.5859 31.0013L10.5859 31.7513H11.3359L32.6666 31.7513Z" stroke="black" stroke-opacity="0.3" stroke-width="1.5"/>
</svg>
